<svg version="1.1" id="shapeGroup" xmlns="http://www.w3.org/2000/svg" xmlns:xlink="http://www.w3.org/1999/xlink" x="0px" y="0px"
	 viewBox="0 0 360.8 225.3" style="enable-background:new 0 0 360.8 225.3;" xml:space="preserve">
<title>Caffeine logo</title>
<path id="fill" d="M101.8,227.7c-6,0-11.8-1.6-17-4.6l-70.2-40.5c-10.5-6.1-17-17.4-17-29.5v-81
	c0-11.4,5.7-22,15.1-28.4c0.7-0.5,1.4-0.9,2-1.2L84.8,2c5.2-3,11.1-4.5,17-4.5s11.9,1.6,17,4.5l73.1,42c1.2,0.7,2.6,1.1,4,1.1
	c0.8,0,1.7-0.1,2.5-0.4l2.4-0.8c1-0.4,1.9-0.7,2.9-1L275.1,20c3.4-1.1,6.9-1.6,10.4-1.6c10.9,0,21.2,5.3,27.6,14.1l43.7,60.1
	c4.3,5.9,6.5,13,6.5,20.3c0.1,7.2-2.2,14.5-6.5,20.4L313,193.5c-5.2,7.2-12.9,12-21.6,13.5c-0.1,0-0.2,0-0.3,0
	c-0.5,0.1-1.1,0.2-1.6,0.2c-0.1,0-0.2,0-0.3,0h-0.1l-0.1,0c-0.4,0-0.8,0.1-1.3,0.1h-2.2c-3.5,0-7-0.5-10.4-1.6L203.6,183
	c-0.8-0.2-1.8-0.6-2.9-1l-2.5-0.8c-0.8-0.3-1.6-0.4-2.5-0.4c-1.4,0-2.8,0.4-4,1l-73.1,41.4c-4.8,2.7-10.3,4.3-15.8,4.4L101.8,227.7z
	 M101.8,23.7c-1.4,0-2.8,0.4-4,1.1L27.6,65.3l-0.5,0.3c-2.1,1.4-3.5,3.9-3.5,6.6v81c0,2.9,1.5,5.5,4,7l70.1,40.5
	c1.2,0.7,2.6,1.1,4,1.1s2.8-0.4,4-1.1l70.2-40.5c2.4-1.4,3.9-3.9,4-6.7c-0.1-1.1-0.1-2.1-0.1-3V75.4c0-1,0.1-2,0.2-3.1v-0.1
	c0-2.9-1.5-5.5-4-7l-70.2-40.5C104.6,24,103.2,23.7,101.8,23.7z M283.3,181.1c0.7,0.2,1.4,0.3,2,0.3c2.6,0,5-1.2,6.5-3.3l43.8-60.6
	c2-2.7,2-6.3,0-8.9l-43.8-60.6c-1.5-2.1-3.9-3.3-6.5-3.3c-0.8,0-1.7,0.1-2.5,0.4l-72.8,23.4c-2.1,1.1-3.6,3.2-4,5.5V152
	c0.4,2.3,1.9,4.4,4,5.5l72.9,23.4C283.1,181,283.2,181,283.3,181.1z" style="fill:#b71c1c"/>
</svg>