<svg xmlns="http://www.w3.org/2000/svg" viewBox="0 0 540 360"><title>Recurso 1</title><g id="ee0b5dc9-f51d-4cdd-bfae-df852384ac98" data-name="Capa 2"><g id="b97d5e7c-2622-43e9-902f-fb592f390b66" data-name="Capa 1"><path d="M380.63,114.83a10.27,10.27,0,0,0-11.49-3.78l-71.29,22.89a10.23,10.23,0,0,0-5.45,7.45v76.76a10.23,10.23,0,0,0,5.45,7.45l71.34,22.9a10.17,10.17,0,0,0,11.42-3.77l42.73-59.16a9.64,9.64,0,0,0,0-11.6Z" style="fill:#b71c1c"/><path d="M0,0V360H540V0ZM440,198.14,397.3,256.85a30.79,30.79,0,0,1-19.52,12.24l-.12,0c-.55.09-1.11.18-1.67.24l-.26,0c-.42.05-.85.08-1.28.11l-.56,0c-.45,0-.9,0-1.36,0h-.22a30.78,30.78,0,0,1-9.43-1.48l-69.73-22.27a28.38,28.38,0,0,1-2.71-1l-2.5-.8a10.31,10.31,0,0,0-8.23.85l-71.39,40.63a30.87,30.87,0,0,1-14.29,4l-1,0a30.92,30.92,0,0,1-15.43-4.12l-68.53-39.57a30.93,30.93,0,0,1-15.43-26.73V140a31,31,0,0,1,13.72-25.67c.58-.38,1.16-.75,1.77-1.1l68.44-39.56a31,31,0,0,1,30.83,0l71.34,41a10.32,10.32,0,0,0,8.27.88l2.45-.79c.88-.37,1.78-.72,2.71-1l69.78-22.29a30.84,30.84,0,0,1,34.36,11.26L440,161.41a31.49,31.49,0,0,1,0,36.73Z" style="fill:#b71c1c"/><path d="M266.68,131.08,198.15,91.52a10.26,10.26,0,0,0-10.28,0l-68.53,39.56c-.18.11-.37.22-.54.34a10.32,10.32,0,0,0-4.54,8.52v79.14A10.32,10.32,0,0,0,119.4,228l68.5,39.59a10.24,10.24,0,0,0,10.25,0L266.68,228a10.33,10.33,0,0,0,5.14-8.7c-.09-.95-.14-1.91-.14-2.88V143.1c0-1,.05-2,.14-2.94V140A10.32,10.32,0,0,0,266.68,131.08Z" style="fill:#b71c1c"/></g></g></svg>