<svg id="bb32f756-22a4-4194-9b12-fc00b4e0be61" data-name="Capa 1" xmlns="http://www.w3.org/2000/svg" viewBox="0 0 360.76 225.31"><title>Caffeine_logo</title><path d="M891.63,540.27a31.62,31.62,0,0,0-6-18.8l-43.72-60.15a31.53,31.53,0,0,0-35.18-11.53l-71.46,22.82a28.86,28.86,0,0,0-2.78,1l-2.5.8a10.58,10.58,0,0,1-8.48-.9l-73.06-42a31.71,31.71,0,0,0-31.57,0l-70.1,40.52c-.62.36-1.22.74-1.81,1.13a31.72,31.72,0,0,0-14,26.28v81a31.69,31.69,0,0,0,15.8,27.37l70.18,40.52a31.56,31.56,0,0,0,15.81,4.22h1a31.55,31.55,0,0,0,14.63-4.11L721.45,607a10.58,10.58,0,0,1,8.43-.87l2.56.82c.9.38,1.83.73,2.78,1l71.41,22.81a31.65,31.65,0,0,0,9.65,1.51h.23c.47,0,.93,0,1.4,0l.57,0c.44,0,.87-.07,1.31-.12l.27,0c.57-.07,1.14-.15,1.71-.25l.12,0a31.63,31.63,0,0,0,20-12.54l43.7-60.14A31.59,31.59,0,0,0,891.63,540.27Zm-78.54,70.4L740,587.21a10.45,10.45,0,0,1-5.58-7.62V501a10.45,10.45,0,0,1,5.58-7.63l73-23.44a10.52,10.52,0,0,1,11.76,3.86l43.75,60.57a9.88,9.88,0,0,1,0,11.89l-43.76,60.59a10.43,10.43,0,0,1-11.7,3.86ZM713.22,502.72v75.11c0,1,.06,2,.15,2.95a10.58,10.58,0,0,1-5.27,8.91l-70.17,40.52a10.48,10.48,0,0,1-10.5,0l-70.15-40.55a10.57,10.57,0,0,1-5.27-9.12v-81a10.55,10.55,0,0,1,4.64-8.73l.56-.35,70.18-40.52a10.62,10.62,0,0,1,10.54,0l70.17,40.52a10.57,10.57,0,0,1,5.27,9.12v.18C713.28,500.7,713.22,501.71,713.22,502.72Z" transform="translate(-530.87 -427.37)" style="fill:#b71c1c"/></svg>